<svg xmlns="http://www.w3.org/2000/svg" xmlns:xlink="http://www.w3.org/1999/xlink" version="1.1" id="Capa_1" x="0px" y="0px" viewBox="0 0 238.924 238.924" style="enable-background:new 0 0 238.924 238.924;" xml:space="preserve" width="512px" height="512px">
<g>
	<path d="M25.908,159.634l7.703,32.28c0.806,3.377,3.823,5.759,7.295,5.759h157.092c3.472,0,6.49-2.383,7.295-5.76l7.701-32.278   c14.46-0.971,25.93-13.037,25.93-27.74c0-15.236-12.32-27.649-27.524-27.803c-0.095-0.003-0.19-0.005-0.286-0.005h-20.095   c-3.059-10.611-12.071-21.432-23.319-27.183c-3.111-1.589-7.004-2.934-11.125-4.358c-11.856-4.096-21.67-8.003-21.67-14.355   c0-3.69,0.635-5.762,0.905-6.646c0.315-1.03,1.275-4.164-1.003-7.245c-1.414-1.912-3.668-3.048-6.047-3.048   c-24.096,0-38.459,16.18-41.914,30.665c-17.915,3.41-35.28,14.836-39.228,32.17H27.81c-0.096,0-0.191,0.002-0.286,0.005   C12.321,104.246,0,116.659,0,131.895C0,146.59,11.458,158.652,25.908,159.634z M192.076,182.673H46.827l-6.232-26.115   c1.988-1.034,3.854-2.298,5.544-3.775c4.996,4.369,11.498,6.924,18.328,6.924c6.831,0,13.334-2.555,18.332-6.925   c4.998,4.37,11.501,6.925,18.332,6.925c6.83,0,13.332-2.555,18.33-6.924c4.997,4.369,11.5,6.924,18.332,6.924   c6.832,0,13.334-2.555,18.33-6.924c4.999,4.368,11.502,6.924,18.33,6.924c6.829,0,13.331-2.556,18.33-6.924   c1.685,1.473,3.543,2.734,5.525,3.767L192.076,182.673z M94.193,86.017c3.869-0.344,6.836-3.586,6.836-7.471   c0-6.264,5.793-17.533,18.882-21.146c-0.005,0.259-0.007,0.523-0.007,0.791c0,17.557,19.119,24.163,31.771,28.533   c3.611,1.248,7.022,2.426,9.197,3.537c6.261,3.201,11.268,8.689,13.999,13.826H63.369C68.191,93.146,83.064,87.005,94.193,86.017z    M27.81,119.091c0.082,0,0.163-0.001,0.244-0.004h26.225h130.365h26.225c0.081,0.002,0.162,0.004,0.244,0.004   c7.064,0,12.811,5.744,12.811,12.805c0,7.064-5.746,12.811-12.811,12.811c-4.906,0-9.445-2.862-11.561-7.291   c-1.245-2.606-3.877-4.266-6.766-4.267h-0.002c-2.888,0-5.518,1.658-6.766,4.262c-2.121,4.433-6.661,7.296-11.566,7.296   c-4.905,0-9.445-2.864-11.566-7.296c-1.247-2.604-3.878-4.262-6.766-4.262h-0.002c-2.889,0.001-5.52,1.661-6.766,4.267   c-2.115,4.429-6.654,7.291-11.561,7.291c-4.908,0-9.447-2.863-11.565-7.293c-1.245-2.606-3.877-4.265-6.766-4.266h-0.001   c-2.889,0-5.52,1.658-6.766,4.264c-2.119,4.431-6.659,7.294-11.564,7.294c-4.906,0-9.447-2.863-11.566-7.294   c-1.246-2.606-3.877-4.264-6.766-4.264c-2.889,0-5.52,1.658-6.766,4.264c-2.119,4.431-6.66,7.294-11.566,7.294   c-4.906,0-9.443-2.863-11.561-7.293c-1.245-2.606-3.877-4.265-6.766-4.266h-0.001c-2.889,0-5.52,1.658-6.766,4.264   c-2.119,4.431-6.658,7.294-11.563,7.294c-7.064,0-12.81-5.746-12.81-12.811C15,124.835,20.746,119.091,27.81,119.091z" fill="#858585"/>
</g>

</svg>
